HIERARCHY
ROOT SpineBase
{
  OFFSET 0.000000 0.000000 0.000000
  CHANNELS 6 Xposition Yposition Zposition Zrotation Xrotation Yrotation
  JOINT SpineMid
  {
    OFFSET -0.000000 33.669615 0.000000
    CHANNELS 3 Zrotation Xrotation Yrotation
    JOINT SpineShoulder
    {
      OFFSET 0.636575 25.038049 -0.968832
      CHANNELS 3 Zrotation Xrotation Yrotation
      JOINT Neck
      {
        OFFSET 0.210211 8.263771 -0.719467
        CHANNELS 3 Zrotation Xrotation Yrotation
        JOINT Head
        {
          OFFSET 7.374034 10.606476 2.176128
          CHANNELS 3 Zrotation Xrotation Yrotation
          End Site
          {
            OFFSET 0 0 0
          }
        }
      }
      JOINT ShoulderLeft
      {
        OFFSET -8.261192 -2.210147 -9.951237
        CHANNELS 3 Zrotation Xrotation Yrotation
        JOINT ElbowLeft
        {
          OFFSET -6.868457 -21.376145 -8.627764
          CHANNELS 3 Zrotation Xrotation Yrotation
          JOINT WristLeft
          {
            OFFSET 6.827798 -24.673717 -4.983203
            CHANNELS 3 Zrotation Xrotation Yrotation
            JOINT HandLeft
            {
              OFFSET 3.789116 -6.989262 -0.823241
              CHANNELS 3 Zrotation Xrotation Yrotation
              JOINT HandTipLeft
              {
                OFFSET 2.868248 -6.706310 -1.734310
                CHANNELS 3 Zrotation Xrotation Yrotation
                End Site
                {
                  OFFSET 0 0 0
                }
              }
              JOINT ThumbLeft
              {
                OFFSET 3.261175 0.496745 -1.182041
                CHANNELS 3 Zrotation Xrotation Yrotation
                End Site
                {
                  OFFSET 0 0 0
                }
              }
            }
          }
        }
      }
      JOINT ShoulderRight
      {
        OFFSET 10.143751 -10.637011 16.988069
        CHANNELS 3 Zrotation Xrotation Yrotation
        JOINT ElbowRight
        {
          OFFSET -0.931966 -27.583229 0.535535
          CHANNELS 3 Zrotation Xrotation Yrotation
          JOINT WristRight
          {
            OFFSET 3.968593 -20.215610 -3.324355
            CHANNELS 3 Zrotation Xrotation Yrotation
            JOINT HandRight
            {
              OFFSET -1.234676 -2.929610 -3.036982
              CHANNELS 3 Zrotation Xrotation Yrotation
              JOINT HandTipRight
              {
                OFFSET -0.338733 -5.561501 -1.751171
                CHANNELS 3 Zrotation Xrotation Yrotation
                End Site
                {
                  OFFSET 0 0 0
                }
              }
              JOINT ThumbRight
              {
                OFFSET 2.293380 -2.061593 -1.883897
                CHANNELS 3 Zrotation Xrotation Yrotation
                End Site
                {
                  OFFSET 0 0 0
                }
              }
            }
          }
        }
      }
    }
  }
  JOINT HipLeft
  {
    OFFSET -3.529611 2.341652 -10.989032
    CHANNELS 3 Zrotation Xrotation Yrotation
    JOINT KneeLeft
    {
      OFFSET -8.274124 -27.164088 -4.810260
      CHANNELS 3 Zrotation Xrotation Yrotation
      JOINT AnkleLeft
      {
        OFFSET -7.691089 -34.673985 0.015009
        CHANNELS 3 Zrotation Xrotation Yrotation
        JOINT FootLeft
        {
          OFFSET 9.574051 -4.403527 -9.285517
          CHANNELS 3 Zrotation Xrotation Yrotation
          End Site
          {
            OFFSET 0 0 0
          }
        }
      }
    }
  }
  JOINT HipRight
  {
    OFFSET 5.312076 -0.913415 3.412550
    CHANNELS 3 Zrotation Xrotation Yrotation
    JOINT KneeRight
    {
      OFFSET -4.498495 -30.415647 -3.045255
      CHANNELS 3 Zrotation Xrotation Yrotation
      JOINT AnkleRight
      {
        OFFSET -5.240789 -29.957536 2.820674
        CHANNELS 3 Zrotation Xrotation Yrotation
        JOINT FootRight
        {
          OFFSET -0.806049 -6.409205 -7.610685
          CHANNELS 3 Zrotation Xrotation Yrotation
          End Site
          {
            OFFSET 0 0 0
          }
        }
      }
    }
  }
}
MOTION
Frames: 14
Frame Time: 0.033333
-83.072504 67.695803 359.227803 0.000000 0.000000 -58.452631 -0.000000 -0.000000 58.452631 -0.000000 0.000000 0.000000 -0.000000 0.000000 0.000000 0.000000 0.000000 0.000000 -0.000000 0.000000 0.000000 -0.000000 0.000000 0.000000 -0.000000 0.000000 0.000000 -0.000000 0.000000 0.000000 0.000000 0.000000 0.000000 0.000000 0.000000 0.000000 -0.000000 0.000000 0.000000 -0.000000 0.000000 0.000000 -0.000000 0.000000 0.000000 -0.000000 0.000000 0.000000 0.000000 0.000000 0.000000 0.000000 0.000000 0.000000 -0.000000 -0.000000 58.452631 -0.000000 0.000000 0.000000 -0.000000 0.000000 0.000000 0.000000 0.000000 0.000000 -0.000000 -0.000000 58.452631 -0.000000 0.000000 0.000000 -0.000000 0.000000 0.000000 0.000000 0.000000 0.000000
-83.769096 67.412220 358.187348 -0.103050 -0.083935 -58.109915 -0.016826 0.131838 58.109859 -0.000000 0.000000 0.000000 1.343979 -0.877105 0.347721 0.000000 0.000000 0.000000 0.290262 -1.273024 0.296699 -5.112031 1.299336 0.806532 -5.783139 -0.532486 -0.084274 5.062550 -2.398140 -0.929583 0.000000 0.000000 0.000000 0.000000 0.000000 0.000000 1.185676 -1.071158 0.070309 -1.184568 1.072383 -0.048139 0.850547 -0.539728 -0.655506 -0.550855 -0.524253 0.635333 0.000000 0.000000 0.000000 0.000000 0.000000 0.000000 -0.208607 0.918619 57.834887 -0.472586 0.961898 -0.068652 -0.089533 -1.543195 0.341012 0.000000 0.000000 0.000000 1.838574 0.340086 58.203370 -1.154747 1.467196 -0.086367 10.860003 2.594211 -13.249444 0.000000 0.000000 0.000000
-84.480378 67.153576 357.133751 -0.218400 -0.221939 -57.884133 -0.071867 0.302969 57.883900 -0.000000 0.000000 0.000000 2.454618 -1.495614 0.578380 0.000000 0.000000 0.000000 0.544439 -2.357432 0.554486 -9.578775 2.182343 1.633438 -11.264888 -0.702612 -0.054381 9.431271 -5.008672 -2.226868 0.000000 0.000000 0.000000 0.000000 0.000000 0.000000 2.168388 -2.041248 0.149759 -3.016404 3.088055 0.310321 2.555755 -2.501450 -1.478001 -1.110174 -0.348511 1.128254 0.000000 0.000000 0.000000 0.000000 0.000000 0.000000 -0.295625 1.733295 57.404364 -0.883343 1.742825 -0.126121 -0.195483 -2.702245 0.594569 0.000000 0.000000 0.000000 3.527796 0.729452 58.042007 -1.881616 1.413255 0.135049 19.049550 4.016265 -24.296614 0.000000 0.000000 0.000000
-85.206350 66.919872 356.067010 -0.345990 -0.413620 -57.787552 -0.165519 0.513218 57.787044 -0.000000 0.000000 0.000000 3.339870 -1.870849 0.686113 0.000000 0.000000 0.000000 0.760208 -3.254184 0.771128 -13.334697 2.663878 2.366756 -15.788539 -0.557185 0.154949 12.581709 -7.729791 -3.810973 0.000000 0.000000 0.000000 0.000000 0.000000 0.000000 2.950473 -2.912293 0.230821 -4.173652 4.313118 0.472438 3.792986 -4.145049 -1.928402 -1.689087 0.577483 1.464288 0.000000 0.000000 0.000000 0.000000 0.000000 0.000000 -0.271760 2.451596 57.165705 -1.238914 2.327647 -0.163989 -0.322989 -3.468694 0.759216 0.000000 0.000000 0.000000 5.057233 1.179126 57.977475 -2.666537 1.927120 0.254672 24.667937 3.691270 -31.988147 0.000000 0.000000 0.000000
-85.947011 66.711108 354.987125 -0.485768 -0.658618 -57.830555 -0.298869 0.761853 57.829750 -0.000000 0.000000 0.000000 4.007906 -2.014922 0.667508 0.000000 0.000000 0.000000 0.935576 -3.964238 0.944684 -16.354191 2.773268 2.923164 -19.107491 -0.164316 0.579206 14.404848 -10.463469 -5.610072 0.000000 0.000000 0.000000 0.000000 0.000000 0.000000 3.534119 -3.686774 0.307154 -5.101903 5.330749 0.624488 4.998238 -6.054466 -2.170802 -2.290485 2.300690 1.629861 0.000000 0.000000 0.000000 0.000000 0.000000 0.000000 -0.142167 3.079464 57.124127 -1.545575 2.709842 -0.176821 -0.283038 -4.067092 -0.055611 0.000000 0.000000 0.000000 6.417054 1.699228 58.017233 -3.340550 2.306729 0.400958 28.179095 3.135725 -37.289747 0.000000 0.000000 0.000000
-86.702361 66.527283 353.894098 -0.637689 -0.956597 -58.021016 -0.473705 1.047529 58.020023 -0.000000 0.000000 0.000000 4.466648 -1.936425 0.520974 0.000000 0.000000 0.000000 1.068860 -4.488208 1.073493 -18.640510 2.541826 3.249096 -21.261296 0.423940 1.224193 15.053247 -13.147676 -7.567036 0.000000 0.000000 0.000000 0.000000 0.000000 0.000000 3.921094 -4.367266 0.373513 -5.803684 6.144801 0.757408 6.171656 -8.221040 -2.195426 -2.906914 4.863684 1.612647 0.000000 0.000000 0.000000 0.000000 0.000000 0.000000 0.093670 3.621435 57.284409 -1.809180 2.890522 -0.161727 -0.423861 -4.193814 -0.489732 0.000000 0.000000 0.000000 7.597839 2.298260 58.166948 -3.899702 2.549978 0.568659 30.206185 2.684131 -40.900229 0.000000 0.000000 0.000000
-87.720197 66.267731 352.667693 -0.949569 -1.363335 -58.361457 0.297108 1.034389 58.368200 -0.596579 0.360399 -0.049672 5.141974 -0.597645 -0.020996 0.000000 0.000000 0.000000 1.534628 -4.127757 1.220871 -19.946587 1.350411 2.907497 -23.499952 1.252868 2.365410 15.978786 -17.123157 -10.928285 0.000000 0.000000 0.000000 0.000000 0.000000 0.000000 4.631083 -4.474711 0.414158 -6.549281 7.037583 0.953385 8.069031 -12.089990 -1.854685 -3.747884 9.080241 1.314292 0.000000 0.000000 0.000000 0.000000 0.000000 0.000000 0.632506 4.375496 57.616112 -2.061109 2.357706 0.029718 -0.793113 -3.455489 -1.373828 0.000000 0.000000 0.000000 9.071284 3.404111 58.348619 -4.676490 2.814536 0.815877 29.628816 3.309491 -41.469086 0.000000 0.000000 0.000000
-88.649272 66.069198 351.490726 -1.221938 -1.736779 -58.870818 0.299463 1.005090 58.866548 -0.601627 0.317391 -0.060398 5.446782 0.409447 -0.476581 0.000000 0.000000 0.000000 1.544381 -3.698186 1.338597 -20.613222 0.014619 2.397217 -24.110717 3.377004 4.931172 13.770633 -22.625896 -15.663929 0.000000 0.000000 0.000000 0.000000 0.000000 0.000000 4.852863 -4.398093 0.413937 -6.951776 7.294040 1.076659 8.935432 -14.304787 -1.132166 -3.283322 14.765421 0.040122 0.000000 0.000000 0.000000 0.000000 0.000000 0.000000 1.355899 4.924824 58.179170 -2.445916 2.124765 0.137737 -0.983730 -2.776590 -2.298446 0.000000 0.000000 0.000000 10.174466 4.382296 58.684391 -5.077126 2.835133 1.056385 31.408840 3.005807 -45.279630 0.000000 0.000000 0.000000
-89.344778 66.009874 350.482612 -1.364743 -2.190639 -59.494564 0.323955 0.988375 59.485445 -0.590926 0.288411 -0.063016 5.190537 1.647749 -0.972732 0.000000 0.000000 0.000000 1.702116 -3.035614 1.266012 -20.513986 -1.028755 1.945619 -23.943322 3.843494 5.427039 13.590084 -21.983636 -15.074084 0.000000 0.000000 0.000000 0.000000 0.000000 0.000000 4.805321 -4.291666 0.390703 -7.165135 7.111786 1.069860 10.479594 -15.519289 -1.384738 -3.099877 17.309083 -0.231726 0.000000 0.000000 0.000000 0.000000 0.000000 0.000000 1.858445 5.240458 58.903023 -2.695788 1.637025 0.275697 -1.136896 -1.755071 -3.146900 0.000000 0.000000 0.000000 10.270459 5.162821 59.154159 -4.979126 2.130025 1.303400 29.203925 3.256218 -43.835969 0.000000 0.000000 0.000000
-89.854075 66.031162 349.462366 -1.353469 -2.670786 -60.129085 0.332991 0.993077 60.123178 -0.594011 0.279044 -0.059443 4.960123 2.913382 -1.542706 0.000000 0.000000 0.000000 2.034682 -2.334571 1.030845 -20.793920 -1.633128 1.905171 -20.275398 3.994603 4.497509 9.525725 -19.988633 -12.902420 0.000000 0.000000 0.000000 0.000000 0.000000 0.000000 4.539617 -4.150493 0.353789 -6.828568 7.428887 1.045000 10.875884 -18.751140 0.038765 -3.006161 19.318522 -1.381016 0.000000 0.000000 0.000000 0.000000 0.000000 0.000000 2.365090 5.111169 59.769790 -2.732040 1.903928 0.179710 -1.233604 -1.177995 -3.861764 0.000000 0.000000 0.000000 10.135150 5.483680 59.749198 -4.758440 1.842531 1.412045 28.990423 3.139338 -44.475110 0.000000 0.000000 0.000000
-90.102029 66.181645 348.598978 -1.216676 -3.065028 -60.856599 0.333100 0.996102 60.861447 -0.588184 0.279113 -0.050478 4.673918 3.627682 -1.787052 0.000000 0.000000 0.000000 2.470115 -1.656201 0.662399 -20.868837 -1.892493 2.071510 -15.724301 3.198858 2.453083 4.906586 -17.443202 -9.960676 0.000000 0.000000 0.000000 0.000000 0.000000 0.000000 4.112123 -3.910220 0.307140 -6.620687 6.204231 0.752002 11.208622 -18.287082 0.406575 1.083800 22.945235 -4.598008 0.000000 0.000000 0.000000 0.000000 0.000000 0.000000 2.724149 4.558846 60.828192 -2.484690 2.302194 -0.013871 -1.263843 -0.672489 -4.466749 0.000000 0.000000 0.000000 9.704371 5.380138 60.545031 -3.903761 1.133336 1.534542 28.542215 3.378165 -45.302183 0.000000 0.000000 0.000000
-90.152334 66.399068 347.918191 -0.975422 -3.348165 -61.261088 0.335840 0.993143 61.283712 -0.575211 0.282068 -0.037248 3.950657 4.373471 -2.035130 0.000000 0.000000 0.000000 2.872704 -0.694739 0.114793 -20.147599 -1.813363 2.403293 -11.168434 0.837643 -0.598100 0.377136 -12.897101 -5.050482 0.000000 0.000000 0.000000 0.000000 0.000000 0.000000 3.541310 -3.806447 0.268106 -6.423739 5.994337 0.693117 12.844359 -19.547187 -0.237311 1.828487 31.753343 -6.163724 0.000000 0.000000 0.000000 0.000000 0.000000 0.000000 2.735062 3.773938 61.558239 -1.899415 2.460922 -0.197976 -1.346052 -0.189448 -4.867030 0.000000 0.000000 0.000000 9.079722 4.934689 61.085666 -3.641012 1.386502 1.392282 28.851518 2.926251 -45.302278 0.000000 0.000000 0.000000
-90.178670 66.626863 347.254744 -0.737581 -3.542397 -61.456292 0.333991 0.987121 61.496693 -0.565331 0.284938 -0.025154 3.137076 4.529646 -1.873523 0.000000 0.000000 0.000000 3.261113 0.025320 -0.373412 -18.646879 -1.735759 2.479298 -6.603341 -1.996703 -3.414425 -4.569629 -9.364180 -0.807060 0.000000 0.000000 0.000000 0.000000 0.000000 0.000000 3.137529 -3.650488 0.235758 -5.412959 6.177886 0.484614 11.108483 -16.834217 -0.831913 -8.605711 27.038923 1.967890 0.000000 0.000000 0.000000 0.000000 0.000000 0.000000 2.680635 3.099482 62.007020 -1.312946 2.324242 -0.294627 -1.485135 0.374417 -5.257396 0.000000 0.000000 0.000000 8.202833 4.516962 61.387367 -3.887678 1.970701 1.146237 29.726501 1.960599 -44.824221 0.000000 0.000000 0.000000
-90.091361 66.858905 346.797692 -0.484672 -3.623579 -61.504189 0.344111 0.980064 61.562985 -0.552178 0.275066 -0.012232 2.147448 4.494321 -1.588295 0.000000 0.000000 0.000000 3.564556 0.761091 -0.874015 -17.346368 -1.521265 2.703753 0.497439 -5.360927 -6.161428 -10.208197 -5.777830 3.456906 0.000000 0.000000 0.000000 0.000000 0.000000 0.000000 2.956663 -3.503249 0.211299 -3.918864 7.567079 0.343275 9.417578 -18.222567 -0.428731 -11.443984 26.766153 3.749251 0.000000 0.000000 0.000000 0.000000 0.000000 0.000000 2.425394 2.472376 62.228064 -0.673646 1.853251 -0.299466 -1.641746 0.981990 -5.559902 0.000000 0.000000 0.000000 7.078410 4.050266 61.526145 -4.430284 2.827721 0.810860 31.020569 0.646245 -43.885605 0.000000 0.000000 0.000000
